<?xml version="1.0" ?><svg width="64px" height="64px" viewBox="0 0 64 64" xmlns="http://www.w3.org/2000/svg"><defs><style>.cls-1{fill:#eabc75;}.cls-2{fill:#fccb7e;}.cls-3{fill:#c73b40;}.cls-4{fill:#d26266;}.cls-5{fill:#ffff97;}.cls-6{fill:#ffffac;}</style></defs><title/><g data-name="Layer 25" id="Layer_25"><path class="cls-1" d="M20,4H16a1,1,0,0,0-1,1V22.616a1,1,0,0,0,.709.956c1.5.456,2.832.812,4.074,1.089A1,1,0,0,0,21,23.685V5A1,1,0,0,0,20,4Z"/><path class="cls-1" d="M28,2H24a1,1,0,0,0-1,1V24.4a1,1,0,0,0,.855.99c1.351.2,2.721.345,4.073.442q.036,0,.072,0a1,1,0,0,0,1-1V3A1,1,0,0,0,28,2Z"/><path class="cls-1" d="M36,0H32a1,1,0,0,0-1,1V25a1,1,0,0,0,1,1c1.227,0,2.521-.052,4.072-.164a1,1,0,0,0,.928-1V1A1,1,0,0,0,36,0Z"/><path class="cls-1" d="M44,0H40a1,1,0,0,0-1,1V24.4a1,1,0,0,0,1,1,1.191,1.191,0,0,0,.145-.01c1.531-.224,2.864-.464,4.073-.733A1,1,0,0,0,45,23.685V1A1,1,0,0,0,44,0Z"/><path class="cls-1" d="M52,8H48a1,1,0,0,0-1,1V22.616a1,1,0,0,0,1.291.957c1.491-.454,2.824-.912,4.073-1.4A1,1,0,0,0,53,21.241V9A1,1,0,0,0,52,8Z"/><path class="cls-2" d="M16,8H12a1,1,0,0,0-1,1V21.241a1,1,0,0,0,.636.931c1.249.489,2.582.947,4.073,1.4A1,1,0,0,0,17,22.616V9A1,1,0,0,0,16,8Z"/><path class="cls-2" d="M24,0H20a1,1,0,0,0-1,1V23.685a1,1,0,0,0,.782.976c1.209.269,2.542.509,4.073.733A1.191,1.191,0,0,0,24,25.4a1,1,0,0,0,1-1V1A1,1,0,0,0,24,0Z"/><path class="cls-2" d="M32,0H28a1,1,0,0,0-1,1V24.839a1,1,0,0,0,.928,1C29.479,25.948,30.773,26,32,26a1,1,0,0,0,1-1V1A1,1,0,0,0,32,0Z"/><path class="cls-2" d="M40,2H36a1,1,0,0,0-1,1V24.839a1,1,0,0,0,1,1q.036,0,.072,0c1.352-.1,2.722-.246,4.073-.442A1,1,0,0,0,41,24.4V3A1,1,0,0,0,40,2Z"/><path class="cls-2" d="M48,4H44a1,1,0,0,0-1,1V23.685a1,1,0,0,0,1.217.976c1.242-.277,2.575-.633,4.074-1.089A1,1,0,0,0,49,22.616V5A1,1,0,0,0,48,4Z"/><path class="cls-3" d="M55.762,19.353A1,1,0,0,0,55,19h-.06a1,1,0,0,0-.418.091c-.882.406-1.826.8-2.886,1.219-1.2.47-2.486.911-3.927,1.349s-2.734.784-3.927,1.049c-1.159.259-2.444.49-3.927.706-1.3.19-2.622.334-3.927.427a47.483,47.483,0,0,1-7.856,0c-1.3-.093-2.626-.237-3.927-.427-1.483-.216-2.768-.447-3.928-.706-1.192-.265-2.476-.608-3.926-1.049s-2.726-.879-3.927-1.349c-1.06-.414-2-.813-2.886-1.219A1.3,1.3,0,0,0,9,19a1,1,0,0,0-.987,1.161l7,43A1,1,0,0,0,16,64H48a1,1,0,0,0,.987-.839l7-43A1,1,0,0,0,55.762,19.353Z"/><path class="cls-4" d="M55.762,19.353A1,1,0,0,0,55,19h-.06a1,1,0,0,0-.418.091c-.233.108-.485.214-.729.321a.993.993,0,0,1,.194.749l-7,43A1,1,0,0,1,46,64h2a1,1,0,0,0,.987-.839l7-43A1,1,0,0,0,55.762,19.353Z"/><path class="cls-5" d="M53.642,32.352A1,1,0,0,0,52.88,32H37a1,1,0,0,0-.707.293L32,36.586l-4.293-4.293A1,1,0,0,0,27,32H11.12a1,1,0,0,0-.987,1.161l2.93,18A1,1,0,0,0,14.05,52h35.9a1,1,0,0,0,.987-.839l2.93-18A1,1,0,0,0,53.642,32.352Z"/><path class="cls-6" d="M53.642,32.352A1,1,0,0,0,52.88,32h-2a1,1,0,0,1,.987,1.161l-2.93,18A1,1,0,0,1,47.95,52h2a1,1,0,0,0,.987-.839l2.93-18A1,1,0,0,0,53.642,32.352Z"/></g></svg>